<svg id="visual" viewBox="0 0 900 600" width="900" height="600" xmlns="http://www.w3.org/2000/svg" xmlns:xlink="http://www.w3.org/1999/xlink" version="1.1"><rect x="0" y="0" width="900" height="600" fill="#002233"></rect><path d="M391 600L437.3 585.7C483.7 571.3 576.3 542.7 600 514.2C623.7 485.7 578.3 457.3 542 428.8C505.7 400.3 478.3 371.7 484.2 343C490 314.3 529 285.7 552.5 257C576 228.3 584 199.7 554.5 171.2C525 142.7 458 114.3 449.7 85.8C441.3 57.3 491.7 28.7 516.8 14.3L542 0L900 0L900 14.3C900 28.7 900 57.3 900 85.8C900 114.3 900 142.7 900 171.2C900 199.7 900 228.3 900 257C900 285.7 900 314.3 900 343C900 371.7 900 400.3 900 428.8C900 457.3 900 485.7 900 514.2C900 542.7 900 571.3 900 585.7L900 600Z" fill="#0066FF" stroke-linecap="round" stroke-linejoin="miter"></path></svg>