<svg id="visual" viewBox="0 0 900 600" width="900" height="600" xmlns="http://www.w3.org/2000/svg" xmlns:xlink="http://www.w3.org/1999/xlink" version="1.1"><path d="M0 404L21.5 409.8C43 415.7 86 427.3 128.8 428.3C171.7 429.3 214.3 419.7 257.2 412.7C300 405.7 343 401.3 385.8 392.7C428.7 384 471.3 371 514.2 375.7C557 380.3 600 402.7 642.8 406.5C685.7 410.3 728.3 395.7 771.2 392.5C814 389.3 857 397.7 878.5 401.8L900 406L900 601L878.5 601C857 601 814 601 771.2 601C728.3 601 685.7 601 642.8 601C600 601 557 601 514.2 601C471.3 601 428.7 601 385.8 601C343 601 300 601 257.2 601C214.3 601 171.7 601 128.8 601C86 601 43 601 21.5 601L0 601Z" fill="#a21eff"></path><path d="M0 398L21.5 399.3C43 400.7 86 403.3 128.8 406C171.7 408.7 214.3 411.3 257.2 414C300 416.7 343 419.3 385.8 424.3C428.7 429.3 471.3 436.7 514.2 437.5C557 438.3 600 432.7 642.8 437.8C685.7 443 728.3 459 771.2 465.8C814 472.7 857 470.3 878.5 469.2L900 468L900 601L878.5 601C857 601 814 601 771.2 601C728.3 601 685.7 601 642.8 601C600 601 557 601 514.2 601C471.3 601 428.7 601 385.8 601C343 601 300 601 257.2 601C214.3 601 171.7 601 128.8 601C86 601 43 601 21.5 601L0 601Z" fill="#941cea"></path><path d="M0 482L21.5 476.2C43 470.3 86 458.7 128.8 461.2C171.7 463.7 214.3 480.3 257.2 490.8C300 501.3 343 505.7 385.8 505.7C428.7 505.7 471.3 501.3 514.2 495.8C557 490.3 600 483.7 642.8 481.8C685.7 480 728.3 483 771.2 485.5C814 488 857 490 878.5 491L900 492L900 601L878.5 601C857 601 814 601 771.2 601C728.3 601 685.7 601 642.8 601C600 601 557 601 514.2 601C471.3 601 428.7 601 385.8 601C343 601 300 601 257.2 601C214.3 601 171.7 601 128.8 601C86 601 43 601 21.5 601L0 601Z" fill="#861ad6"></path><path d="M0 531L21.5 532.7C43 534.3 86 537.7 128.8 530C171.7 522.3 214.3 503.7 257.2 494.5C300 485.3 343 485.7 385.8 489.8C428.7 494 471.3 502 514.2 510.7C557 519.3 600 528.7 642.8 527C685.7 525.3 728.3 512.7 771.2 513C814 513.3 857 526.7 878.5 533.3L900 540L900 601L878.5 601C857 601 814 601 771.2 601C728.3 601 685.7 601 642.8 601C600 601 557 601 514.2 601C471.3 601 428.7 601 385.8 601C343 601 300 601 257.2 601C214.3 601 171.7 601 128.8 601C86 601 43 601 21.5 601L0 601Z" fill="#7818c2"></path><path d="M0 534L21.5 535.8C43 537.7 86 541.3 128.8 544.8C171.7 548.3 214.3 551.7 257.2 548.5C300 545.3 343 535.7 385.8 537.5C428.7 539.3 471.3 552.7 514.2 557.8C557 563 600 560 642.8 557.7C685.7 555.3 728.3 553.7 771.2 554C814 554.3 857 556.7 878.5 557.8L900 559L900 601L878.5 601C857 601 814 601 771.2 601C728.3 601 685.7 601 642.8 601C600 601 557 601 514.2 601C471.3 601 428.7 601 385.8 601C343 601 300 601 257.2 601C214.3 601 171.7 601 128.8 601C86 601 43 601 21.5 601L0 601Z" fill="#6b15ae"></path></svg>