<svg id="visual" viewBox="0 0 900 600" width="900" height="600" xmlns="http://www.w3.org/2000/svg" xmlns:xlink="http://www.w3.org/1999/xlink" version="1.1"><path d="M0 449L21.5 441.5C43 434 86 419 128.8 408.8C171.7 398.7 214.3 393.3 257.2 389.7C300 386 343 384 385.8 393.8C428.7 403.7 471.3 425.3 514.2 431.7C557 438 600 429 642.8 415.3C685.7 401.7 728.3 383.3 771.2 378.3C814 373.3 857 381.7 878.5 385.8L900 390L900 601L878.5 601C857 601 814 601 771.2 601C728.3 601 685.7 601 642.8 601C600 601 557 601 514.2 601C471.3 601 428.7 601 385.8 601C343 601 300 601 257.2 601C214.3 601 171.7 601 128.8 601C86 601 43 601 21.5 601L0 601Z" fill="#e86868"></path><path d="M0 397L21.5 409.7C43 422.3 86 447.7 128.8 460.3C171.7 473 214.3 473 257.2 472.3C300 471.7 343 470.3 385.8 464.3C428.7 458.3 471.3 447.7 514.2 445.7C557 443.7 600 450.3 642.8 444.3C685.7 438.3 728.3 419.7 771.2 409.2C814 398.7 857 396.3 878.5 395.2L900 394L900 601L878.5 601C857 601 814 601 771.2 601C728.3 601 685.7 601 642.8 601C600 601 557 601 514.2 601C471.3 601 428.7 601 385.8 601C343 601 300 601 257.2 601C214.3 601 171.7 601 128.8 601C86 601 43 601 21.5 601L0 601Z" fill="#e95a59"></path><path d="M0 505L21.5 496.3C43 487.7 86 470.3 128.8 469.7C171.7 469 214.3 485 257.2 488.8C300 492.7 343 484.3 385.8 478C428.7 471.7 471.3 467.3 514.2 472.7C557 478 600 493 642.8 491.3C685.7 489.7 728.3 471.3 771.2 460.3C814 449.3 857 445.7 878.5 443.8L900 442L900 601L878.5 601C857 601 814 601 771.2 601C728.3 601 685.7 601 642.8 601C600 601 557 601 514.2 601C471.3 601 428.7 601 385.8 601C343 601 300 601 257.2 601C214.3 601 171.7 601 128.8 601C86 601 43 601 21.5 601L0 601Z" fill="#e94c4a"></path><path d="M0 536L21.5 527.7C43 519.3 86 502.7 128.8 502.7C171.7 502.7 214.3 519.3 257.2 521.8C300 524.3 343 512.7 385.8 509.2C428.7 505.7 471.3 510.3 514.2 513.7C557 517 600 519 642.8 521C685.7 523 728.3 525 771.2 526C814 527 857 527 878.5 527L900 527L900 601L878.5 601C857 601 814 601 771.2 601C728.3 601 685.7 601 642.8 601C600 601 557 601 514.2 601C471.3 601 428.7 601 385.8 601C343 601 300 601 257.2 601C214.3 601 171.7 601 128.8 601C86 601 43 601 21.5 601L0 601Z" fill="#e83c3a"></path><path d="M0 542L21.5 545C43 548 86 554 128.8 552.2C171.7 550.3 214.3 540.7 257.2 538.2C300 535.7 343 540.3 385.8 544C428.7 547.7 471.3 550.3 514.2 555.2C557 560 600 567 642.8 568.3C685.7 569.7 728.3 565.3 771.2 559C814 552.7 857 544.3 878.5 540.2L900 536L900 601L878.5 601C857 601 814 601 771.2 601C728.3 601 685.7 601 642.8 601C600 601 557 601 514.2 601C471.3 601 428.7 601 385.8 601C343 601 300 601 257.2 601C214.3 601 171.7 601 128.8 601C86 601 43 601 21.5 601L0 601Z" fill="#e62828"></path></svg>